<?xml version="1.0" encoding="utf-8"?>
<!-- Generator: Adobe Illustrator 18.0.0, SVG Export Plug-In . SVG Version: 6.00 Build 0)  -->
<!DOCTYPE svg PUBLIC "-//W3C//DTD SVG 1.1//EN" "http://www.w3.org/Graphics/SVG/1.1/DTD/svg11.dtd">
<svg version="1.1" id="Layer_1" xmlns="http://www.w3.org/2000/svg" xmlns:xlink="http://www.w3.org/1999/xlink" x="0px" y="0px"
	 viewBox="0 0 960 560" enable-background="new 0 0 960 560" xml:space="preserve">
<g>
	<g>
		<polygon fill="#EB1B2E" points="345.4,237.7 353.6,237.7 353.6,200.5 345.2,200.5 		"/>
		<polygon fill="#EB1B2E" points="330.6,222.4 343.4,222.4 343.4,215.3 330.6,215.3 330.6,200.5 322,200.5 322,237.7 330.6,237.7 		
			"/>
		<path fill="#EB1B2E" d="M370.7,211.4c-8.1,0-13,5.3-13,13.8c0,7.9,4.6,12.9,12.3,13.2v-6.5c-3.1-0.4-4.2-2.9-4.2-6.9
			c0-4.4,1.7-7,4.9-7c3.1,0,4.9,2.6,4.9,7c0,4.1-1.5,6.5-4.1,7v6.5c7.1-0.4,12.1-5.6,12.1-13.7C383.6,216.5,378.6,211.4,370.7,211.4
			z"/>
		<path fill="#EB1B2E" d="M398.4,218c2.8,0,3.7,1.2,3.7,4.2v15.5h8.2v-15.8c0-4-0.5-5.9-2.2-7.6c-1.8-1.8-4.6-2.8-8.7-2.8
			c-1,0-1.9,0-2.9,0.1v6.6C397,218,397.7,218,398.4,218z"/>
		<path fill="#EB1B2E" d="M395,211.8c-2.6,0.3-5.1,0.8-8.2,1.6v24.4h8.2V211.8z"/>
		<path fill="#EB1B2E" d="M430.2,202.3L430.2,202.3v17.9l0,0v11.1c-1,0.2-1.8,0.2-2.6,0.2c-4.1,0-6.3-2.4-6.3-6.6
			c0-4.4,2.3-6.9,6.4-6.9c0.4,0,1,0,1,0.1v-6.4c-0.5-0.1-1.1-0.1-1.8-0.1c-8.3,0-13.6,5.3-13.6,13.6c0,8.5,5.1,13,14.8,13
			c3.2,0,6.2-0.3,10.3-1.1v-38h-8.2V202.3z"/>
		<path fill="#EB1B2E" d="M462.1,214.7c-1.2-2.1-3.7-3.2-7.8-3.2c-3.7,0-7.3,0.7-10.3,2.4v6.2c3.1-1.6,6.2-2.5,9.2-2.5
			c2,0,2.6,0.5,2.6,2v1.8c-9.7,0.8-13.7,3.5-13.7,9.1c0,5.2,3.1,7.6,9.7,7.6c0.9,0,1.9,0,2.9-0.1v-5.7c-1,0.1-1.6,0.1-2.3,0.1
			c-2.2,0-3.1-0.7-3.1-2.3c0-2.1,1.3-2.9,7-3.5v5.4l0,0v5.8c2-0.2,4.6-0.4,6.6-0.7v-16.4C462.9,217.5,462.7,216,462.1,214.7z"/>
		<g>
			<path fill="#100906" d="M258.4,244.9c-3.9-3-9.1-4.3-16.8-4.3c0,0-0.1,0-0.1,0v7.6c0.8,0,1.4,0,2,0c4.4,0,7.3,1,9.3,3.1
				c1.7,1.8,2.7,4.8,2.7,8.1c0,7.5-4.2,11.5-12.1,11.5c-0.9,0-1.7-0.1-3.6-0.2v-9.9v-12.6v-7.6c-2.2,0-4.8,0.2-7.4,0.3l-1.2,0.1
				v37.1c3.1,0.2,6.8,0.3,9.9,0.3c7.8,0,12.7-1.3,16.7-4.2c4.3-3.3,6.7-8.6,6.7-15.1C264.5,252.9,262.4,247.9,258.4,244.9z"/>
		</g>
		<g>
			<path fill="#100906" d="M289.6,270.1c-2.4,1.6-5.3,2.5-8.4,2.5c-4.2,0-6.6-1.7-6.8-4.9h16.5l0.1-0.6c0.1-0.9,0.1-1.6,0.1-2
				c0-8.4-4.2-13.1-11.6-13.1c-6,0-10.3,3.2-12,8.5h7.5c0.8-1.8,2.4-2.9,4.5-2.9c2.6,0,4.1,1.6,4.3,4.5h-9.3l0,0H267
				c-0.2,1.1-0.3,2.2-0.3,3.4c0,8.4,4.9,13.3,13.4,13.3c3.4,0,6.5-0.8,9.6-2.4V270.1z"/>
		</g>
		<g>
			<path fill="#100906" d="M300.3,278.2h3.2V266c-0.3-1-0.9-2.8-1-3.2c-1.2-3.7-2.2-7.3-2.8-10.3h-8.3c2.1,8.2,4.9,16.3,8.7,24.7
				L300.3,278.2z"/>
		</g>
		<g>
			<path fill="#100906" d="M308.2,278.2l0.4-0.9c3.7-8.4,6.5-16.5,8.7-24.7h-8.3c-0.6,3-1.6,6.6-2.8,10.3c-0.1,0.4-0.7,2.2-1,3.2
				v12.1H308.2z"/>
		</g>
		<g>
			<path fill="#100906" d="M326.2,260.4c0.8-1.8,2.4-2.9,4.5-2.9c2.6,0,4.1,1.6,4.3,4.5h-9.3l0,0h-7.5c-0.2,1.1-0.3,2.2-0.3,3.4
				c0,8.4,4.9,13.3,13.4,13.3c3.4,0,6.5-0.8,9.6-2.4v-6.2c-2.4,1.6-5.3,2.5-8.4,2.5c-4.2,0-6.6-1.7-6.8-4.9h16.5l0.1-0.6
				c0.1-0.9,0.1-1.6,0.1-2c0-8.4-4.2-13.1-11.6-13.1c-6,0-10.3,3.2-12,8.5H326.2z"/>
		</g>
		<g>
			<rect x="345.4" y="242.5" fill="#100906" width="8.6" height="35.7"/>
		</g>
		<g>
			<path fill="#100906" d="M370.6,251.9c-8.1,0-13.1,5.3-13.1,13.8c0,7.9,4.6,12.9,12.1,13.2v-6.5c-2.6-0.4-4.1-2.9-4.1-6.9
				c0-4.4,1.8-7,5-7c3.1,0,4.8,2.6,4.8,7c0,4.1-1.5,6.5-4.1,7v6.5c7.5-0.4,12.1-5.6,12.1-13.7C383.4,256.9,378.6,251.9,370.6,251.9z
				"/>
		</g>
		<g>
			<path fill="#100906" d="M394.7,278.1c1.3,0.3,2.3,0.4,3.6,0.4c8.3,0,13.5-5.2,13.5-13.3c0-8.6-5-13.1-14.5-13.1
				c-0.3,0-0.6,0-0.9,0v6.5c0.4,0,0.7,0,1.1,0c4.1,0,6.3,2.3,6.3,6.6c0,4.4-2.4,6.9-6.5,6.9c-0.8,0-1.4-0.1-2.5-0.3v-12.9l0,0V252
				c-2.5,0.1-5,0.5-7.9,1.1v38.1h7.9V278.1z"/>
		</g>
		<g>
			<path fill="#100906" d="M426.5,251.9c-6,0-10.3,3.2-12,8.5h7.5c0.8-1.8,2.4-2.9,4.5-2.9c2.6,0,4.1,1.6,4.3,4.5h-9.3l0,0h-7.5
				c-0.2,1.1-0.3,2.2-0.3,3.4c0,8.4,4.9,13.3,13.4,13.3c3.4,0,6.5-0.8,9.6-2.4v-6.2c-2.4,1.6-5.3,2.5-8.4,2.5
				c-4.2,0-6.6-1.7-6.8-4.9H438l0.1-0.6c0.1-0.9,0.1-1.6,0.1-2C438.1,256.7,433.8,251.9,426.5,251.9z"/>
		</g>
		<g>
			<path fill="#100906" d="M441.7,254.4v23.8h7.9v-18.5c1.6-0.6,3.2-0.8,5-0.8c1.8,0,3.2,0.3,4.7,0.8v-6.9c-1.8-0.6-3.3-0.8-5.6-0.8
				C449.9,252,445.7,252.8,441.7,254.4z"/>
		</g>
		<g>
			<path fill="#100906" d="M300,299.5l-3.1-1.5c-2.3-1.1-3.3-2.1-3.3-3.6c0-2.2,2.2-3.4,5.9-3.4c3.6,0,6.3,0.9,9.5,3.1v-8
				c-3-1.6-6.4-2.4-10.1-2.4c-8.5,0-13.8,4.3-13.8,11.1c0,2.5,0.8,4.8,2.3,6.4c1.5,1.7,3.1,2.8,7.4,4.9c5.3,2.7,6.2,3.6,6.2,5.7
				c0,2.3-2.1,3.6-5.7,3.6c-3.7,0-6.4-1-10.5-3.9v8.6c3.4,1.7,7.1,2.5,11,2.5c8.7,0,14.2-4.3,14.2-11.4c0-2.9-1-5.5-2.8-7.4
				C305.5,302.4,303.7,301.2,300,299.5z"/>
		</g>
		<g>
			<path fill="#100906" d="M314.6,312.4c0,4.3,0.3,5.5,1.4,7c1.4,1.7,3.9,2.6,7.4,2.6c1.4,0,2.7-0.2,4.3-0.4v-6.1
				c-0.8,0.2-1.2,0.3-1.7,0.3c-2.7,0-3.4-0.9-3.4-4.4v-8h-7.9V312.4z"/>
		</g>
		<g>
			<path fill="#100906" d="M345.7,321.9c2.1-0.2,4.3-0.5,7-1l1-0.2v-24.7h-7.9V321.9z"/>
		</g>
		<g>
			<path fill="#100906" d="M342.4,315.2c-3.1,0-4.1-1-4.1-4.3v-14.8h-4.7v0h-11.1V289H315v7.2h-4.4v6h0.2v0h18.8v0h0.9v8.6
				c0,4.8,0.7,7,2.6,8.7c1.9,1.7,4.8,2.6,9.1,2.6c0.7,0,1.3,0,2,0v-6.9C343.5,315.2,343,315.2,342.4,315.2z"/>
		</g>
		<g>
			<path fill="#100906" d="M374,296c-1.2-0.3-2.2-0.4-3.5-0.4c-8.3,0-13.6,5.3-13.6,13.6c0,8.5,5,13,14.7,13c0.3,0,0.5,0,0.7,0v-6.5
				c-0.4,0-0.7,0-1.1,0c-4.1,0-6.3-2.4-6.3-6.6c0-4.4,2.3-6.9,6.4-6.9c1,0,1.8,0.1,2.7,0.4v12.9c0,0,0,0,0,0v6.6
				c2.4-0.1,4.9-0.4,7.9-1v-38.5H374V296z"/>
		</g>
		<g>
			<rect x="386.8" y="296.1" fill="#100906" width="7.9" height="25.6"/>
		</g>
		<g>
			<path fill="#100906" d="M411.3,295.4c-8.1,0-13.1,5.3-13.1,13.8c0,7.9,4.6,12.9,12.1,13.2v-6.5c-2.6-0.4-4.1-2.9-4.1-6.9
				c0-4.4,1.8-7,5-7c3.1,0,4.8,2.6,4.8,7c0,4.1-1.5,6.5-4.1,7v6.5c7.5-0.4,12.1-5.6,12.1-13.7C424.1,300.5,419.2,295.4,411.3,295.4z
				"/>
		</g>
	</g>
	<g>
		<g>
			<path fill="#EB1B2E" d="M665.3,198.9H532.5c-7.7,0-14.8,4-18.8,10.5l-6.2,10h10.9v37.5h32.8v18.2h-32.8v38.7h-21.7v-76.8
				l-50.9,82.5c-3.9,6.3,0.6,14.4,8,14.4H589c7.7,0,14.8-4,18.7-10.6l10-16.7c-9.2,5.2-20.5,7.4-37,7.4c-7.8,0-17.2-0.3-25-0.8
				v-93.6l3-0.1c6.5-0.4,13.1-0.7,18.7-0.9v19.2v31.8v24.9c4.7,0.1,6.8,0.4,9,0.4c19.9,0,30.6-10,30.6-29.1c0-8.3-2.5-15.8-6.8-20.5
				c-5.1-5.4-12.5-7.9-23.5-7.9c-1.7,0-3.2,0.1-5.1,0.1v-19.1c0.1,0,0.2,0,0.3,0c19.4,0,32.5,3.4,42.4,11
				c10,7.7,15.5,20.2,15.5,35.8c0,1.7-0.1,3.4-0.2,5.1l34-56.6C677.5,207.2,672.8,198.9,665.3,198.9z"/>
		</g>
	</g>
</g>
</svg>
