<?xml version="1.0" encoding="utf-8"?>
<!-- Generator: Adobe Illustrator 18.0.0, SVG Export Plug-In . SVG Version: 6.00 Build 0)  -->
<!DOCTYPE svg PUBLIC "-//W3C//DTD SVG 1.1//EN" "http://www.w3.org/Graphics/SVG/1.1/DTD/svg11.dtd">
<svg version="1.1" id="Layer_1" xmlns="http://www.w3.org/2000/svg" xmlns:xlink="http://www.w3.org/1999/xlink" x="0px" y="0px"
	 viewBox="0 0 98.3 171.2" enable-background="new 0 0 98.3 171.2" xml:space="preserve">
<path fill="#FFFFFF" d="M76.6,33.8c0-15.2-12.3-27.5-27.5-27.5S21.7,18.6,21.7,33.8c0,10.8,0,38.4,0,49.2
	c0,15.2,12.3,27.5,27.5,27.5S76.6,98.2,76.6,83C76.6,72.2,76.6,44.6,76.6,33.8z"/>
<path fill="#FFFFFF" d="M90.8,81.9h-4.6c0,20-16.6,37-37,37c-20.4,0-37-17-37-37H7.5c0,22,17.4,40,39.4,41.2v41.8h5v-41.8
	C72.9,121.9,90.8,103.9,90.8,81.9z"/>
</svg>
