<?xml version="1.0" encoding="utf-8"?>
<!-- Generator: Adobe Illustrator 18.0.0, SVG Export Plug-In . SVG Version: 6.00 Build 0)  -->
<!DOCTYPE svg PUBLIC "-//W3C//DTD SVG 1.1//EN" "http://www.w3.org/Graphics/SVG/1.1/DTD/svg11.dtd">
<svg version="1.1" id="Layer_1" xmlns="http://www.w3.org/2000/svg" xmlns:xlink="http://www.w3.org/1999/xlink" x="0px" y="0px"
	 viewBox="0 0 310.7 114" enable-background="new 0 0 310.7 114" xml:space="preserve">
<g>
	<g>
		<circle fill="#FFFFFF" cx="65.7" cy="90.3" r="15.9"/>
		<circle fill="#FFFFFF" cx="238.2" cy="90.3" r="15.9"/>
		<g>
			<path fill="#FFFFFF" d="M281.5,44.5c-26.2-4.2-85.1-7.7-85.1-7.7s-22-24.4-27.4-24.4s-51.2,0-61.3,0S40.4,41.5,40.4,41.5
				s-12.9,0-20.4,0c-7.4,0-7.6,7.5-7.6,19.1c0,4.2,11.3,20.8,16.1,20.8c3.4,0,11.6,0.6,16.1,1c3.2-8.6,11.5-14.7,21.2-14.7
				c12.5,0,22.7,10.2,22.7,22.7h11.5h115.6c0-12.5,10.2-22.7,22.7-22.7c11.5,0,21,8.6,22.5,19.7c9.7,0,18.3,0,20.2,0
				c4.8,0,14.3-15.1,14.3-36C295.2,47.1,281.5,44.5,281.5,44.5z"/>
		</g>
	</g>
</g>
</svg>
